<svg width="43" height="45" viewBox="0 0 43 45" fill="none" xmlns="http://www.w3.org/2000/svg">
<g id="Logo">
<path id="Ellipse 7" d="M43 23.8535C43 35.5331 33.3741 45.0013 21.5 45.0013C9.62588 45.0013 0 35.5331 0 23.8535C0 12.1738 9.62588 2.70557 21.5 2.70557C33.3741 2.70557 43 12.1738 43 23.8535ZM2.82519 23.8535C2.82519 33.9984 11.1862 42.2224 21.5 42.2224C31.8138 42.2224 40.1748 33.9984 40.1748 23.8535C40.1748 13.7086 31.8138 5.48449 21.5 5.48449C11.1862 5.48449 2.82519 13.7086 2.82519 23.8535Z" fill="#090505"/>
<ellipse id="Ellipse 8" cx="21.5332" cy="23.8166" rx="9.05081" ry="8.90258" fill="#090505"/>
<ellipse id="Ellipse 9" cx="21.4928" cy="4.42306" rx="4.4967" ry="4.42306" fill="#090505"/>
</g>
</svg>
